<?xml version="1.0" encoding="UTF-8"?>
<svg width="1000px" height="1000px" viewBox="0 0 1000 1000" version="1.1" xmlns="http://www.w3.org/2000/svg">
    <g stroke="none" fill="none" fill-rule="evenodd">
        <g fill="#FFFFFF" fill-opacity="0.1">
            <circle cx="50" cy="50" r="4"/>
            <circle cx="150" cy="50" r="4"/>
            <circle cx="250" cy="50" r="4"/>
            <circle cx="350" cy="50" r="4"/>
            <circle cx="450" cy="50" r="4"/>
            <circle cx="550" cy="50" r="4"/>
            <circle cx="650" cy="50" r="4"/>
            <circle cx="750" cy="50" r="4"/>
            <circle cx="850" cy="50" r="4"/>
            <circle cx="950" cy="50" r="4"/>
            
            <circle cx="50" cy="150" r="4"/>
            <circle cx="150" cy="150" r="4"/>
            <circle cx="250" cy="150" r="4"/>
            <circle cx="350" cy="150" r="4"/>
            <circle cx="450" cy="150" r="4"/>
            <circle cx="550" cy="150" r="4"/>
            <circle cx="650" cy="150" r="4"/>
            <circle cx="750" cy="150" r="4"/>
            <circle cx="850" cy="150" r="4"/>
            <circle cx="950" cy="150" r="4"/>
            
            <circle cx="50" cy="250" r="4"/>
            <circle cx="150" cy="250" r="4"/>
            <circle cx="250" cy="250" r="4"/>
            <circle cx="350" cy="250" r="4"/>
            <circle cx="450" cy="250" r="4"/>
            <circle cx="550" cy="250" r="4"/>
            <circle cx="650" cy="250" r="4"/>
            <circle cx="750" cy="250" r="4"/>
            <circle cx="850" cy="250" r="4"/>
            <circle cx="950" cy="250" r="4"/>
            
            <circle cx="50" cy="350" r="4"/>
            <circle cx="150" cy="350" r="4"/>
            <circle cx="250" cy="350" r="4"/>
            <circle cx="350" cy="350" r="4"/>
            <circle cx="450" cy="350" r="4"/>
            <circle cx="550" cy="350" r="4"/>
            <circle cx="650" cy="350" r="4"/>
            <circle cx="750" cy="350" r="4"/>
            <circle cx="850" cy="350" r="4"/>
            <circle cx="950" cy="350" r="4"/>
            
            <circle cx="50" cy="450" r="4"/>
            <circle cx="150" cy="450" r="4"/>
            <circle cx="250" cy="450" r="4"/>
            <circle cx="350" cy="450" r="4"/>
            <circle cx="450" cy="450" r="4"/>
            <circle cx="550" cy="450" r="4"/>
            <circle cx="650" cy="450" r="4"/>
            <circle cx="750" cy="450" r="4"/>
            <circle cx="850" cy="450" r="4"/>
            <circle cx="950" cy="450" r="4"/>
            
            <circle cx="50" cy="550" r="4"/>
            <circle cx="150" cy="550" r="4"/>
            <circle cx="250" cy="550" r="4"/>
            <circle cx="350" cy="550" r="4"/>
            <circle cx="450" cy="550" r="4"/>
            <circle cx="550" cy="550" r="4"/>
            <circle cx="650" cy="550" r="4"/>
            <circle cx="750" cy="550" r="4"/>
            <circle cx="850" cy="550" r="4"/>
            <circle cx="950" cy="550" r="4"/>
            
            <circle cx="50" cy="650" r="4"/>
            <circle cx="150" cy="650" r="4"/>
            <circle cx="250" cy="650" r="4"/>
            <circle cx="350" cy="650" r="4"/>
            <circle cx="450" cy="650" r="4"/>
            <circle cx="550" cy="650" r="4"/>
            <circle cx="650" cy="650" r="4"/>
            <circle cx="750" cy="650" r="4"/>
            <circle cx="850" cy="650" r="4"/>
            <circle cx="950" cy="650" r="4"/>
            
            <circle cx="50" cy="750" r="4"/>
            <circle cx="150" cy="750" r="4"/>
            <circle cx="250" cy="750" r="4"/>
            <circle cx="350" cy="750" r="4"/>
            <circle cx="450" cy="750" r="4"/>
            <circle cx="550" cy="750" r="4"/>
            <circle cx="650" cy="750" r="4"/>
            <circle cx="750" cy="750" r="4"/>
            <circle cx="850" cy="750" r="4"/>
            <circle cx="950" cy="750" r="4"/>
            
            <circle cx="50" cy="850" r="4"/>
            <circle cx="150" cy="850" r="4"/>
            <circle cx="250" cy="850" r="4"/>
            <circle cx="350" cy="850" r="4"/>
            <circle cx="450" cy="850" r="4"/>
            <circle cx="550" cy="850" r="4"/>
            <circle cx="650" cy="850" r="4"/>
            <circle cx="750" cy="850" r="4"/>
            <circle cx="850" cy="850" r="4"/>
            <circle cx="950" cy="850" r="4"/>
            
            <circle cx="50" cy="950" r="4"/>
            <circle cx="150" cy="950" r="4"/>
            <circle cx="250" cy="950" r="4"/>
            <circle cx="350" cy="950" r="4"/>
            <circle cx="450" cy="950" r="4"/>
            <circle cx="550" cy="950" r="4"/>
            <circle cx="650" cy="950" r="4"/>
            <circle cx="750" cy="950" r="4"/>
            <circle cx="850" cy="950" r="4"/>
            <circle cx="950" cy="950" r="4"/>
        </g>
    </g>
</svg>
